<svg width="54" height="54" viewBox="0 0 54 54" fill="none" xmlns="http://www.w3.org/2000/svg">
<rect width="53.8002" height="54" fill="white"/>
<path d="M41.7941 27.5402C41.7941 28.7089 41.7982 29.8769 41.7894 31.0449C41.7894 31.2232 41.8368 31.2695 42.0109 31.2695C43.9198 31.2631 45.8286 31.2631 47.7371 31.2695C48.426 31.2695 49.0919 31.4008 49.6968 31.7521C50.5361 32.2394 51.1194 32.9378 51.3985 33.8798C51.5082 34.2528 51.5909 34.6333 51.6891 35.009C51.8287 35.5433 51.9757 36.0749 52.1105 36.6099C52.1965 36.9502 52.2622 37.2906 52.3462 37.6309C52.4519 38.0604 52.5684 38.4872 52.6761 38.916C52.7642 39.2679 52.8448 39.6218 52.9322 39.9737C53.0385 40.4012 53.1503 40.8273 53.2573 41.2547C53.3454 41.608 53.4307 41.9619 53.5181 42.3159C53.6238 42.7426 53.7213 43.1721 53.8372 43.5969C54.0187 44.2734 54.0628 44.9425 53.8961 45.6388C53.7657 46.2071 53.499 46.7347 53.1191 47.1757C52.8786 47.4541 52.563 47.6713 52.2649 47.8938C51.8815 48.1797 51.4391 48.3254 50.967 48.4002C49.6203 48.6147 48.5019 48.1818 47.5941 47.1873C47.2329 46.7997 46.9764 46.3257 46.849 45.8104C46.7318 45.3237 46.5997 44.8404 46.4757 44.3551C46.2874 43.6227 46.0984 42.8903 45.9148 42.1566C45.8295 41.8163 45.7611 41.4759 45.6764 41.1356C45.5409 40.6013 45.3993 40.0697 45.2638 39.5361C45.2029 39.2958 45.1453 39.0548 45.0952 38.8118C45.0715 38.6989 45.0234 38.6335 44.9021 38.6349C44.7287 38.6349 44.5553 38.6349 44.3818 38.6349C44.2667 38.6349 44.2233 38.6818 44.2179 38.8016C44.1894 39.4731 44.0876 40.1393 43.9144 40.7885C43.7012 41.5937 43.3933 42.3706 42.9972 43.1027C42.4397 44.133 41.712 45.0606 40.8451 45.8457C39.9774 46.6318 38.9806 47.2608 37.899 47.7046C37.4069 47.9026 36.8991 48.0586 36.3809 48.1709C35.8753 48.2805 35.3633 48.3576 34.8479 48.4016C34.4012 48.4526 33.9509 48.4663 33.5019 48.4425C32.8191 48.3964 32.1418 48.2882 31.4785 48.1191C30.6179 47.8962 29.7907 47.5591 29.0188 47.1165C28.0662 46.5694 27.2087 45.8701 26.4798 45.046C25.795 44.27 25.2178 43.4267 24.81 42.4717C24.6346 42.0633 24.4395 41.6549 24.3169 41.2268C24.1766 40.7388 24.1021 40.2317 24.0073 39.7294C23.8715 39.0449 23.833 38.3446 23.8928 37.6493C23.9442 37.0083 24.0386 36.3716 24.1753 35.7434C24.3947 34.8069 24.7564 33.91 25.2476 33.0841C26.2425 31.3781 27.7043 29.9952 29.4591 29.1002C29.4996 29.0811 29.533 29.0494 29.5543 29.0098C29.5756 28.9703 29.5838 28.9249 29.5777 28.8804C29.5777 28.1187 29.5472 27.3557 29.5871 26.5968C29.644 25.5077 30.0938 24.5929 30.9474 23.8918C31.3748 23.5406 31.8788 23.3296 32.3605 23.0791C33.214 22.636 34.0743 22.2059 34.9346 21.7784C35.5944 21.451 36.2509 21.1127 36.9283 20.8255C37.33 20.6553 37.7744 20.6152 38.2154 20.6329C39.4049 20.6798 40.3553 21.1856 41.0767 22.1303C41.4379 22.5861 41.665 23.1342 41.7325 23.7128C41.7596 23.9647 41.7928 24.2186 41.7948 24.4718C41.8002 25.4948 41.7941 26.5171 41.7941 27.5402ZM29.5655 31.9134C26.7549 33.8499 25.3391 37.9093 27.0821 41.5862C28.6157 44.8227 32.4201 46.9232 36.5164 45.5946C38.2099 45.0439 39.5519 43.9848 40.5206 42.4881C41.7399 40.6095 42.0834 38.5525 41.5686 36.3758C41.1906 34.7613 40.3445 33.4108 39.0906 32.3272C38.4446 31.7594 37.7023 31.3128 36.8991 31.0088V31.2477C36.8991 32.2415 36.8951 33.2352 36.8991 34.2297C36.8991 34.7742 36.7467 35.2711 36.5157 35.7516C36.3099 36.1793 36.0206 36.561 35.6649 36.874C35.2895 37.2219 34.841 37.4806 34.3527 37.6309C34.0512 37.7188 33.7408 37.7722 33.4274 37.7902C33.1236 37.806 32.8191 37.7832 32.521 37.7221C32.2106 37.6579 31.9088 37.5569 31.6221 37.4213C30.9932 37.1218 30.4693 36.638 30.1196 36.0334C29.753 35.4236 29.5639 34.7228 29.5736 34.0105C29.5797 33.3775 29.5736 32.7438 29.5736 32.1101C29.5743 32.0495 29.5688 31.9869 29.5655 31.9134ZM39.367 29.463V29.1846C39.367 27.6872 39.367 26.1857 39.367 24.6862C39.367 24.4963 39.3412 24.3057 39.3236 24.1158C39.2559 23.4038 38.3691 22.8225 37.6199 23.2003C36.8361 23.5958 36.051 23.9858 35.2659 24.3778C34.5031 24.759 33.7376 25.134 32.9789 25.5234C32.756 25.6316 32.5483 25.7689 32.3611 25.9318C32.078 26.1918 32.0157 26.5587 32.015 26.9249C32.01 29.1937 32.01 31.4603 32.015 33.7246C32.0163 33.9387 32.0319 34.1524 32.0617 34.3644C32.1681 35.137 33.0433 35.5896 33.7465 35.2493C34.2322 35.0117 34.4747 34.6115 34.4754 34.0697C34.4754 32.1809 34.4754 30.2921 34.4801 28.4032C34.4775 28.2185 34.5047 28.0347 34.5607 27.8587C34.7782 27.2134 35.5484 26.8554 36.1865 27.1712C36.6343 27.3945 36.8924 27.7512 36.9107 28.2705C36.9179 28.3085 36.9339 28.3443 36.9574 28.3749C36.981 28.4055 37.0114 28.4302 37.0461 28.4468C37.7389 28.6614 38.4071 28.9488 39.0398 29.3044C39.1292 29.3521 39.2261 29.395 39.367 29.463ZM43.2336 33.7478C43.2648 33.8342 43.2824 33.8941 43.3075 33.952C43.6076 34.6075 43.8347 35.2944 43.9849 36C44.0147 36.1437 44.0648 36.1927 44.2098 36.1913C44.7822 36.1838 45.3553 36.175 45.927 36.1913C46.3213 36.2036 46.7054 36.3023 46.9316 36.6678C47.0668 36.8892 47.171 37.1283 47.2412 37.3784C47.3733 37.831 47.4722 38.2939 47.5847 38.7519C47.6389 38.9738 47.6903 39.1964 47.7472 39.4176C47.838 39.775 47.9356 40.1303 48.0243 40.4883C48.1049 40.8123 48.1747 41.139 48.2546 41.463C48.3447 41.8292 48.4423 42.194 48.5337 42.5595C48.6401 42.9856 48.743 43.4124 48.848 43.8378C48.9375 44.1979 49.012 44.5634 49.1251 44.916C49.2003 45.1522 49.2904 45.4054 49.4455 45.5912C49.8167 46.0357 50.3871 46.1255 50.9033 45.8696C51.0911 45.7857 51.2517 45.6506 51.3669 45.4796C51.4821 45.3087 51.5472 45.1087 51.555 44.9024C51.5753 44.5729 51.4872 44.2646 51.4066 43.9494C51.2637 43.4124 51.1485 42.8665 51.013 42.3274C50.904 41.8884 50.7807 41.4535 50.6703 41.0158C50.4738 40.2378 50.2828 39.4591 50.0891 38.6805C49.8953 37.9018 49.6955 37.115 49.5024 36.3261C49.3669 35.7884 49.2538 35.2459 49.1082 34.7122C49.0552 34.5277 48.9686 34.3546 48.8528 34.2018C48.5926 33.8526 48.2262 33.7321 47.7953 33.7348C46.3443 33.7444 44.8926 33.7382 43.4416 33.7389C43.3833 33.7375 43.3264 33.7423 43.2336 33.7464V33.7478Z" fill="#080A1A"/>
<path d="M39.3607 20.6289C38.0605 20.626 36.8145 20.1062 35.8962 19.1834C34.9778 18.2606 34.462 17.0102 34.462 15.7066C34.462 13.0071 36.6791 10.8034 39.36 10.8C42.0253 10.8 44.2607 13.0153 44.2546 15.7216C44.2482 17.021 43.7305 18.2653 42.8141 19.1842C41.8978 20.1031 40.6567 20.6223 39.3607 20.6289ZM39.3512 18.165C39.6733 18.1679 39.9927 18.1064 40.2908 17.9842C40.589 17.8621 40.86 17.6817 41.0879 17.4535C41.3159 17.2253 41.4962 16.954 41.6186 16.6552C41.7409 16.3565 41.8028 16.0364 41.8005 15.7134C41.7883 14.3337 40.7674 13.2741 39.3648 13.2673C37.9825 13.2605 36.929 14.2997 36.9134 15.7141C36.911 16.0361 36.9723 16.3553 37.0939 16.6533C37.2154 16.9514 37.3948 17.2222 37.6216 17.4502C37.8483 17.6782 38.118 17.8588 38.4149 17.9815C38.7118 18.1042 39.03 18.1666 39.3512 18.165Z" fill="#080A1A"/>
<path d="M6.62036 23.0739C7.18566 22.2554 7.85905 21.5175 8.62212 20.8804C9.2839 20.3205 10.0055 19.8359 10.7738 19.4355C11.1578 19.2306 11.5558 19.0533 11.9649 18.9051C12.4524 18.7293 12.9509 18.5862 13.4573 18.4767C13.8867 18.3877 14.3215 18.3408 14.7529 18.2619C14.8818 18.2394 14.8818 18.1347 14.9021 18.0579C14.9837 17.7696 15.0908 17.4893 15.2223 17.2202C15.5403 16.5421 16.0141 15.949 16.6047 15.4897C17.0471 15.1375 17.5479 14.8662 18.0842 14.6881C18.6709 14.4936 19.2692 14.3774 19.8825 14.4161C20.724 14.4565 21.5419 14.708 22.2613 15.1476C22.9807 15.5871 23.5785 16.2007 23.9999 16.9319C24.2527 17.3645 24.4327 17.8359 24.5324 18.3272C24.6131 18.7283 24.6905 19.1288 24.6647 19.5375C24.6091 20.4071 24.3873 21.223 23.9294 21.9791C23.4597 22.7683 22.778 23.4092 21.9622 23.8286C21.1062 24.2839 20.1315 24.4652 19.1695 24.3481C18.4907 24.2771 17.8338 24.0667 17.2397 23.73C17.1142 23.6572 17.0619 23.6831 17.0619 23.834C17.0619 25.3172 17.0619 26.7999 17.0619 28.2822C17.0619 28.4046 17.0972 28.4747 17.2315 28.5005C18.1332 28.6746 18.9815 29.0584 19.7081 29.621C20.5662 30.2792 21.1625 31.1448 21.5919 32.1239C21.7863 32.582 21.9272 33.0612 22.0117 33.5518C22.0996 34.0599 22.1407 34.5749 22.1345 35.0905C22.1345 39.1022 22.1345 43.1139 22.1345 47.1255C22.1345 47.575 21.9989 47.9544 21.6203 48.2304C21.0058 48.6812 20.1606 48.4025 19.8689 47.7409C19.78 47.5369 19.7807 47.3329 19.7807 47.1228C19.7807 43.4538 19.7807 39.7849 19.7807 36.1159C19.7807 35.7759 19.7807 35.7759 19.4483 35.7759C18.112 35.7671 16.7757 35.7977 15.44 35.7582C15.0147 35.746 14.6071 35.6392 14.1953 35.5332C13.4491 35.3407 12.7844 34.9892 12.1684 34.5316C12.1536 34.5162 12.1352 34.5047 12.1148 34.498C12.0945 34.4914 12.0728 34.4898 12.0518 34.4935C11.9941 34.5112 12.0151 34.5649 12.0124 34.605C12.0097 34.6452 12.0124 34.7043 12.0124 34.7546C12.0124 38.8905 12.0124 43.0264 12.0124 47.1623C12.0124 47.509 11.9276 47.813 11.6984 48.0713C11.5023 48.2916 11.2466 48.4419 10.9603 48.444C9.19667 48.4571 7.433 48.4571 5.66933 48.444C5.26233 48.444 4.85533 48.1312 4.68643 47.6899C4.62698 47.5092 4.60257 47.3188 4.61452 47.1289C4.61452 41.7404 4.61452 36.1934 4.61452 30.9639C4.61452 25.7345 6.62036 23.0739 6.62036 23.0739ZM17.4316 31.034C16.4067 30.626 15.6151 30.7096 15.3152 30.558C15.1216 30.4483 14.9616 30.2875 14.8528 30.0931C14.7439 29.8986 14.6904 29.678 14.698 29.4551C14.6916 26.6143 14.6916 23.7737 14.698 20.9334C14.698 20.8899 14.698 20.8457 14.698 20.8028C14.7061 20.707 14.6762 20.6668 14.5711 20.6825C14.4164 20.7008 14.2665 20.7396 14.1146 20.7661C13.544 20.8679 12.9869 21.0347 12.454 21.2632C11.6267 21.6136 10.8556 22.085 10.166 22.6618C9.24076 23.4376 8.48144 24.3927 7.93361 25.47C7.60574 26.1108 7.36114 26.7911 7.20576 27.4942C7.0762 28.0782 6.97241 28.6623 6.97241 29.262C6.97241 34.8126 6.96992 40.3628 6.96495 45.9125C6.96495 46.0723 7.02057 46.092 7.15692 46.0913C7.91462 46.0859 8.67299 46.0798 9.43069 46.0913C9.62944 46.0954 9.65725 46.0335 9.65725 45.8547C9.65273 39.5634 9.65138 33.2719 9.65318 26.9801C9.65318 26.4831 9.85669 26.0962 10.2942 25.8637C10.466 25.7717 10.6581 25.7244 10.8528 25.7259C11.0476 25.7274 11.2389 25.7778 11.4093 25.8725C11.5796 25.9671 11.7236 26.103 11.8281 26.2677C11.9327 26.4325 11.9944 26.6208 12.0077 26.8156C12.0246 27.0386 12.0077 27.2637 12.0131 27.4881C12.043 28.3951 11.9405 29.3055 12.085 30.2078C12.1789 30.7425 12.3838 31.2515 12.6864 31.7018C12.9891 32.152 13.3827 32.5335 13.8419 32.8215C14.3086 33.1194 14.8241 33.341 15.3702 33.3655C16.7268 33.4335 18.0917 33.3825 19.4524 33.3934C19.5616 33.3934 19.5881 33.3512 19.546 33.2574C19.3893 32.9263 19.234 32.5951 19.0115 32.2993C18.5909 31.7499 18.093 31.291 17.4316 31.034ZM19.679 22.024C21.1503 21.9757 22.2946 20.896 22.2946 19.4008C22.2946 17.86 21.1129 16.7803 19.6844 16.7769C18.2762 16.7769 17.0769 17.8539 17.0755 19.3981C17.0735 20.8912 18.2199 21.9737 19.679 22.024Z" fill="#080A1A"/>
</svg>
