<svg width="30" height="30" viewBox="0 0 30 30" fill="none" xmlns="http://www.w3.org/2000/svg">
<path d="M24.5094 7.56562C24.6062 7.60718 24.6969 7.66812 24.7687 7.74405C24.8438 7.8203 24.9031 7.9103 24.9438 8.00904C24.9813 8.10779 25 8.21341 25 8.31965V22C25 22.1313 24.9469 22.2594 24.8531 22.3531C24.7594 22.4469 24.6313 22.5 24.5 22.5C24.3687 22.5 24.2406 22.4469 24.1469 22.3531C24.0531 22.2594 24 22.1313 24 22V17.0002H22.5906C22.3781 16.9971 22.1688 16.9534 21.975 16.869C21.7781 16.7846 21.6 16.6596 21.4531 16.5065C21.3062 16.3534 21.1906 16.1753 21.1125 15.9753C21.0344 15.7784 20.9969 15.5659 21 15.3534L21.0125 11.9442C21.0063 11.0099 21.275 10.0943 21.7906 9.31399C22.3031 8.53339 23.0375 7.92279 23.9 7.55969C23.9937 7.52062 24.0969 7.50062 24.2 7.50062C24.3063 7.50187 24.4125 7.52375 24.5094 7.56562ZM24 8.6187C23.3969 8.93744 22.8906 9.4168 22.5438 10.0033C22.1938 10.5911 22.0125 11.263 22.0187 11.9442L22 15.3597C21.9719 15.4472 22.0156 15.5315 22.0469 15.6128C22.0812 15.694 22.1312 15.7659 22.1906 15.8284C22.2437 15.8815 22.3062 15.9253 22.3469 15.9534C22.4437 15.9846 22.5188 15.9721 22.5906 16.0003H24V8.6187ZM9.55937 13.5597C9.27812 13.841 8.89687 14.0004 8.5 14.0004H8V22C8 22.1313 7.94719 22.2594 7.85344 22.3531C7.75969 22.4469 7.6325 22.5 7.5 22.5C7.3675 22.5 7.24031 22.4469 7.14656 22.3531C7.05281 22.2594 7 22.1313 7 22V14.0004H6.5C6.10219 14.0004 5.72063 13.841 5.43938 13.5597C5.15803 13.2785 5 12.8973 5 12.5004V8.0006C5 7.86811 5.05269 7.74093 5.14644 7.64718C5.24022 7.55344 5.3675 7.50062 5.5 7.50062C5.6325 7.50062 5.75969 7.55344 5.85344 7.64718C5.94719 7.74093 6 7.86811 6 8.0006V12.5004C6 12.6317 6.05281 12.7598 6.14656 12.8535C6.24031 12.9473 6.3675 13.0004 6.5 13.0004H7V8.0006C7 7.86811 7.05281 7.74093 7.14656 7.64718C7.24031 7.55344 7.3675 7.50062 7.5 7.50062C7.6325 7.50062 7.75969 7.55344 7.85344 7.64718C7.94719 7.74093 8 7.86811 8 8.0006V13.0004H8.5C8.63125 13.0004 8.75938 12.9473 8.85313 12.8535C8.94688 12.7598 9 12.6317 9 12.5004V8.0006C9 7.86811 9.05312 7.74093 9.14687 7.64718C9.24062 7.55344 9.36875 7.50062 9.5 7.50062C9.63125 7.50062 9.75938 7.55344 9.85313 7.64718C9.94688 7.74093 10 7.86811 10 8.0006V12.5004C10 12.8973 9.84062 13.2785 9.55937 13.5597ZM18.6812 11.8192C19.525 12.6629 20 13.8066 20 15.0003C20 15.8909 19.7375 16.7596 19.2406 17.5002C18.7469 18.2408 18.0437 18.8158 17.2219 19.1564C16.4 19.497 15.4937 19.5876 14.6219 19.4126C13.7219 19.2408 12.9469 18.7845 12.3187 18.1814C11.6875 17.5533 11.2594 16.7502 11.0875 15.8784C10.9125 15.0066 11.0031 14.1003 11.3156 13.2785C11.6844 12.4567 12.2594 11.7536 12.9719 11.2598C13.7406 10.763 14.6094 10.5005 15.5 10.5005C16.6938 10.5005 17.8375 10.9755 18.6812 11.8192ZM17.975 17.4752C18.6313 16.819 19 15.9284 19 15.0003C19 14.3097 18.7937 13.6316 18.4094 13.0566C18.025 12.4817 17.4781 12.0317 16.8406 11.7661C16.2 11.5036 15.4969 11.4317 14.8156 11.5692C14.1375 11.7036 13.5156 12.0348 13.025 12.5254C12.5344 13.016 12.2031 13.6379 12.0687 14.3191C11.9313 14.9972 12 15.7003 12.2656 16.3409C12.5312 16.9784 12.9812 17.5252 13.5562 17.9096C14.1312 18.2939 14.8062 18.5002 15.5 18.5002C16.4281 18.5002 17.3188 18.1314 17.975 17.4752ZM21.9594 18.1939C22 18.2471 22.0031 18.3064 22.0469 18.3689C22.0656 18.4345 22.0687 18.472 22.0344 18.5658C22.0531 18.6314 22.0312 18.6939 22 18.7502C21.3156 19.9345 20.3219 20.9094 19.1219 21.5688C17.925 22.2281 16.5688 22.5469 15.2031 22.4906C13.8375 22.4094 12.5125 22.0094 11.3719 21.2563C10.2312 20.5032 9.31875 19.4501 8.73125 18.2158C8.69688 18.1283 8.675 18.0908 8.66875 18.0221C8.6625 17.9533 8.66875 17.8846 8.6875 17.8189C8.70937 17.7533 8.74375 17.6908 8.7875 17.6408C8.83437 17.5877 8.8875 17.5471 8.95 17.5158C9.0125 17.4877 9.07812 17.4721 9.14687 17.4408C9.21562 17.4658 9.28437 17.4783 9.35 17.5033C9.4125 17.5283 9.47188 17.5658 9.51875 17.6158C9.56875 17.6627 9.60625 17.7221 9.63125 17.7846C10.1406 18.8564 10.9312 19.7657 11.9187 20.422C12.9062 21.0751 14.0563 21.4438 15.2406 21.4938C16.425 21.5407 17.6 21.2626 18.6375 20.6938C19.675 20.122 20.5375 19.2751 21.1313 18.2502C21.1969 18.1346 21.3063 18.0533 21.4344 18.0189C21.5344 17.9846 21.6969 18.0002 21.8125 18.0658C21.8687 18.1002 21.9219 18.1439 21.9594 18.1939ZM11.1094 9.9974C10.9781 9.98177 10.8594 9.91427 10.775 9.81022C10.6937 9.70585 10.6562 9.57335 10.6719 9.44148C10.6875 9.30992 10.7562 9.18962 10.8594 9.10775C12.1813 8.06623 13.8156 7.5 15.5 7.5C17.1844 7.5 18.8188 8.06623 20.1406 9.10775C20.2437 9.18962 20.2844 9.30992 20.3281 9.44148C20.3156 9.57335 20.3063 9.70585 20.225 9.81022C20.1406 9.91427 20.0219 9.98177 19.8906 9.9974C19.7563 10.013 19.625 9.97583 19.5219 9.89365C18.3688 9.00775 16.9531 8.52746 15.5 8.52746C14.0469 8.52746 12.6313 9.00775 11.4781 9.89365C11.3469 9.97583 11.2438 10.013 11.1094 9.9974Z" fill="#080A1A"/>
</svg>
