<svg width="30" height="30" viewBox="0 0 30 30" fill="none" xmlns="http://www.w3.org/2000/svg">
<path d="M20 5H10C7.92891 5 6.25 6.67891 6.25 8.75V22.5C6.25 23.8809 7.36914 25 8.75 25H21.25C22.6309 25 23.75 23.8809 23.75 22.5V8.75C23.75 6.67891 22.0703 5 20 5ZM22.5 22.5C22.5 23.1891 21.9391 23.75 21.25 23.75H8.75C8.06094 23.75 7.5 23.1891 7.5 22.5V12.5H22.5V22.5ZM22.5 11.25H7.5V8.75C7.5 7.37148 8.62148 6.25 10 6.25H20C21.3785 6.25 22.5 7.37148 22.5 8.75V11.25ZM10 22.5H20C20.6902 22.5 21.25 21.9402 21.25 21.25V15C21.25 14.3098 20.6902 13.75 20 13.75H10C9.30977 13.75 8.75 14.3086 8.75 15V21.25C8.75 21.9414 9.30977 22.5 10 22.5ZM10 15H20V21.25H10V15ZM18.125 16.25H11.875C11.5312 16.25 11.25 16.5312 11.25 16.875C11.25 17.2188 11.5312 17.5 11.875 17.5H18.125C18.4702 17.5 18.75 17.2202 18.75 16.875C18.75 16.5312 18.4688 16.25 18.125 16.25ZM9.375 8.75C9.02969 8.75 8.75 9.03125 8.75 9.375C8.75 9.71875 9.02969 10 9.375 10C9.72031 10 10 9.71875 10 9.375C10 9.03125 9.72031 8.75 9.375 8.75ZM13.125 8.75C12.7812 8.75 12.5 9.03125 12.5 9.375C12.5 9.71875 12.7812 10 13.125 10C13.4688 10 13.75 9.71875 13.75 9.375C13.75 9.03125 13.4688 8.75 13.125 8.75ZM16.875 8.75C16.5312 8.75 16.25 9.03125 16.25 9.375C16.25 9.71875 16.5312 10 16.875 10C17.2188 10 17.5 9.71875 17.5 9.375C17.5 9.03125 17.2188 8.75 16.875 8.75ZM20.625 8.75C20.2812 8.75 20 9.03125 20 9.375C20 9.71875 20.2812 10 20.625 10C20.9688 10 21.25 9.71875 21.25 9.375C21.25 9.03125 20.9688 8.75 20.625 8.75Z" fill="#080A1A"/>
</svg>
