<svg width="30" height="30" viewBox="0 0 30 30" fill="none" xmlns="http://www.w3.org/2000/svg">
<path d="M19.375 5H10.625C8.20872 5 6.25 6.67891 6.25 8.75V22.5C6.25 23.8809 7.55566 25 9.16667 25H20.8333C22.4443 25 23.75 23.8809 23.75 22.5V8.75C23.75 6.67891 21.7904 5 19.375 5ZM22.2917 22.5C22.2917 23.1891 21.6372 23.75 20.8333 23.75H9.16667C8.36276 23.75 7.70833 23.1891 7.70833 22.5V12.5H17.9167V19.375C17.9167 19.7202 18.2432 20 18.6458 20C19.0485 20 19.375 19.7202 19.375 19.375V12.5H22.2917V22.5ZM22.2917 11.25H19.375V9.375C19.375 9.03125 19.0469 8.75 18.6458 8.75C18.2448 8.75 17.9167 9.03125 17.9167 9.375V11.25H7.70833V8.75C7.70833 7.36914 9.014 6.25 10.625 6.25H19.375C20.986 6.25 22.2917 7.36914 22.2917 8.75V11.25Z" fill="#080A1A"/>
</svg>
