<svg width="30" height="30" viewBox="0 0 30 30" fill="none" xmlns="http://www.w3.org/2000/svg">
<path d="M23 13.9286C21.8953 13.9286 21 14.8878 21 16.0714H9C9 14.8878 8.10469 13.9286 7 13.9286C5.89531 13.9286 5 14.8878 5 16.0714V21.4286C5 22.0202 5.44781 22.5 6 22.5H8C8.55219 22.5 9 22.0202 9 21.4286H21C21 22.0202 21.4478 22.5 22 22.5H24C24.5522 22.5 25 22.0202 25 21.4286V16.0714C25 14.8895 24.1031 13.9286 23 13.9286ZM8 21.4286H6V16.0714C6 15.4808 6.44875 15 7 15C7.55125 15 8 15.4808 8 16.0714V21.4286ZM20.9719 20.3571H8.97187L9 17.1429H21L20.9719 20.3571ZM24 21.4286H22V16.0714C22 15.4808 22.4487 15 23 15C23.5513 15 24 15.4808 24 16.0714V21.4286ZM7.5 12.8571C7.77625 12.8571 8 12.6161 8 12.3214V11.25C8 9.77277 9.12188 8.57143 10.5 8.57143H19.5C20.8781 8.57143 22 9.77277 22 11.25V12.3214C22 12.6161 22.225 12.8571 22.5 12.8571C22.775 12.8571 23 12.6161 23 12.3214V11.25C23 9.18248 21.4312 7.5 19.5 7.5H10.5C8.57188 7.5 7 9.18248 7 11.25V12.3214C7 12.6161 7.22375 12.8571 7.5 12.8571Z" fill="#080A1A"/>
</svg>
