<svg width="30" height="30" viewBox="0 0 30 30" fill="none" xmlns="http://www.w3.org/2000/svg">
<path d="M22.5 8.74996H16.6875L19.7801 6.09917C20.0425 5.87456 20.073 5.48042 19.8484 5.21831C19.6226 4.95526 19.2281 4.92655 18.9672 5.15057L15 8.55152L11.0312 5.15069C10.7712 4.9267 10.377 4.95538 10.15 5.21842C9.92578 5.48042 9.95703 5.87456 10.2188 6.09917L13.3125 8.74996H7.5C6.11914 8.74996 5 9.8691 5 11.2148V22.4297C5 23.8789 6.11914 25 7.5 25H22.5C23.8809 25 25 23.8809 25 22.5352V11.25C25 9.87105 23.8789 8.74996 22.5 8.74996ZM23.75 22.5C23.75 23.1891 23.1891 23.75 22.5 23.75H7.5C6.81094 23.75 6.25 23.1891 6.25 22.5V11.25C6.25 10.5609 6.81094 9.99996 7.5 9.99996H22.5C23.1891 9.99996 23.75 10.5609 23.75 11.25V22.5ZM17.5039 11.25H10.0039C8.62305 11.25 7.50391 12.3691 7.50391 13.75V20C7.50391 21.3808 8.62305 22.5 10.0039 22.5L17.4688 22.5C18.8496 22.5 19.9691 21.3809 19.9691 20V13.75C20.0039 12.3711 18.8828 11.25 17.5039 11.25ZM18.75 20C18.75 20.6891 18.1891 21.25 17.5 21.25H10C9.31094 21.25 8.75 20.6891 8.75 20V13.75C8.75 13.0609 9.31094 12.5 10 12.5H17.5C18.1891 12.5 18.75 13.0609 18.75 13.75V20ZM21.875 12.1875C21.3574 12.1875 20.9375 12.607 20.9375 13.125C20.9375 13.6425 21.3574 14.0625 21.875 14.0625C22.393 14.0625 22.8125 13.6425 22.8125 13.125C22.8125 12.6054 22.3945 12.1875 21.875 12.1875ZM21.875 14.6875C21.3574 14.6875 20.9375 15.107 20.9375 15.625C20.9375 16.1426 21.3574 16.5625 21.875 16.5625C22.393 16.5625 22.8125 16.1426 22.8125 15.625C22.8125 15.1054 22.3945 14.6875 21.875 14.6875Z" fill="#080A1A"/>
</svg>
