<svg xmlns="http://www.w3.org/2000/svg" width="301.937" height="99.834" viewBox="0 0 301.937 99.834">
  <g id="Logo-white" transform="translate(-12366.031 3365.417)">
    <g id="Logo_Type" data-name="Logo Type" transform="translate(12366.031 -3360.54)">
      <rect id="Rectangle_9" data-name="Rectangle 9" width="24.57" height="9.838" transform="translate(94.589 17.44)" fill="#fff"/>
      <rect id="Rectangle_10" data-name="Rectangle 10" width="8.849" height="8.849" transform="translate(100.624 6.257) rotate(-45)" fill="#fff"/>
      <rect id="Rectangle_11" data-name="Rectangle 11" width="8.849" height="8.849" transform="translate(23.252 81.4) rotate(-45)" fill="#fff"/>
      <path id="Path_14" data-name="Path 14" d="M121.627,48.6V70.9H116.71a4.926,4.926,0,0,1-4.917-4.915V53.68l-9.854,2.465V66a4.916,4.916,0,0,1-9.826,0V53.68L82.28,56.144v4.929a9.826,9.826,0,1,1-19.653,0h0V48.757h-.049l-9.806,2.478v.979A18.734,18.734,0,0,1,34.1,70.911H2.524L0,80.755H34.1a28.418,28.418,0,0,0,21.428-9.719,19.605,19.605,0,0,0,30.284,4.513A14.669,14.669,0,0,0,106.5,77.326l.416-.361a14.644,14.644,0,0,0,9.826,3.791h14.743V46.14Z" transform="translate(0 -14.113)" fill="#fff"/>
    </g>
    <g id="Icon">
      <path id="_2" data-name="2" d="M-12472.313,3465.25a48.967,48.967,0,0,1-19.275-3.913,49.306,49.306,0,0,1-15.741-10.677,49.76,49.76,0,0,1-10.621-15.848,50.072,50.072,0,0,1-3.918-19.426,49.925,49.925,0,0,1,3.9-19.544,49.738,49.738,0,0,1,10.7-15.935,49.28,49.28,0,0,1,15.681-10.6,48.8,48.8,0,0,1,19.177-3.887h.1a49.316,49.316,0,0,1,10.946,1.227c-22.353,5.094-38.546,25.593-38.5,48.743a49.6,49.6,0,0,0,38.512,48.62A49.55,49.55,0,0,1-12472.313,3465.25Z" transform="translate(25047.824 -6730.834)" fill="#fff"/>
      <path id="_1" data-name="1" d="M190.313,49.865A49.508,49.508,0,1,1,140.755,0h.1A49.674,49.674,0,0,1,190.313,49.865Z" transform="translate(12477.655 -3365.417)" fill="#fff"/>
    </g>
  </g>
</svg>
