<svg width="30" height="30" viewBox="0 0 30 30" fill="none" xmlns="http://www.w3.org/2000/svg">
<path d="M22.5 13.2852V8.125C22.5 7.77969 22.2188 7.5 21.875 7.5C21.5312 7.5 21.25 7.77969 21.25 8.125V12.7383C17.9227 11.6074 12.0781 11.6074 8.75 12.7383V8.125C8.75 7.77969 8.47031 7.5 8.125 7.5C7.77969 7.5 7.5 7.77969 7.5 8.125V13.2852C6.72109 13.7695 6.25 14.332 6.25 15C6.25 17.0379 7.20586 18.8855 8.75 20.2383V23.125C8.75 24.1602 9.59102 25 10.625 25H19.375C20.409 25 21.25 24.159 21.25 23.125V20.2387C22.793 18.8867 23.75 17.0391 23.75 15C23.75 14.332 23.2773 13.7695 22.5 13.2852ZM20 23.125C20 23.4692 19.7192 23.75 19.375 23.75H10.625C10.2812 23.75 10 23.4688 10 23.125V21.1461C11.418 21.9961 13.1406 22.5 15 22.5C16.859 22.5 18.5813 21.9969 20 21.1461V23.125ZM15 21.25C11.6488 21.25 8.80469 19.4086 7.84766 16.9102C9.51562 17.6992 12.2695 18.125 15 18.125C17.7305 18.125 20.4844 17.7008 22.1523 16.8766C21.1953 19.4102 18.3516 21.25 15 21.25ZM15 16.875C10.3477 16.875 7.5 15.6602 7.5 15C7.5 14.3398 10.348 13.125 15 13.125C19.652 13.125 22.5 14.3383 22.5 15C22.5 15.6617 19.6523 16.875 15 16.875ZM6.875 6.25H23.125C23.4688 6.25 23.75 5.97031 23.75 5.625C23.75 5.27977 23.4688 5 23.125 5H6.875C6.52984 5 6.25 5.27977 6.25 5.625C6.25 5.97031 6.52984 6.25 6.875 6.25ZM10.625 7.5C10.2812 7.5 10 7.77969 10 8.125C10 8.47031 10.2812 8.75 10.625 8.75H11.875C12.2188 8.75 12.5 8.47031 12.5 8.125C12.5 7.77969 12.2188 7.5 11.875 7.5H10.625Z" fill="#080A1A"/>
</svg>
