<svg xmlns="http://www.w3.org/2000/svg" viewBox="0 0 1000 1000"><defs><style>.cls-1{fill:url(#linear-gradient);}.cls-2{fill:#fc0;}.cls-3{fill:none;}</style><linearGradient id="linear-gradient" x1="73" y1="500.13" x2="927" y2="500.13" gradientUnits="userSpaceOnUse"><stop offset="0" stop-color="#fc0"/><stop offset="1" stop-color="#fc0"/></linearGradient></defs><title>My Irancell-FA</title><g id="Layer_2"><g id="Layer_1-2"><rect class="cls-1" x="73" y="73.13" width="854" height="854" rx="281.65"/><path d="M741,604.91c-64.12,30.63-149.7,47.49-241,47.49s-176.87-16.86-241-47.49c-59.74-28.54-94-66.73-94-104.78s34.27-76.24,94-104.78c64.11-30.63,149.69-47.49,241-47.49s176.86,16.86,241,47.49c59.76,28.54,94,66.73,94,104.78S800.73,576.37,741,604.91Z"/><path class="cls-2" d="M330.78,508.2q8.58,7.94,25.64,7.94a53.24,53.24,0,0,0,16.3-2.43A43,43,0,0,0,386,506.86a32.07,32.07,0,0,0,8.93-10.73,30.76,30.76,0,0,0,3.25-14.22V479a10.88,10.88,0,0,0,4.81,3.14,22,22,0,0,0,6.79.93h2.32q7.42,0,12.07-2.15a18.74,18.74,0,0,0,7.66-6.56,21.68,21.68,0,0,0,6.44,6.33q3.77,2.37,10.38,2.38a26.22,26.22,0,0,0,8.59-1.45q4.17-1.45,7.65-6.68a16.31,16.31,0,0,0,3.48,3.72,21.69,21.69,0,0,0,8.59,3.94,20.28,20.28,0,0,0,4.18.47,15.6,15.6,0,0,0,9.05-2.62,21,21,0,0,0,6-6.09,14.43,14.43,0,0,0,3.71,4.53,17.39,17.39,0,0,0,4.7,2.67,21.74,21.74,0,0,0,5.11,1.22,46.53,46.53,0,0,0,5,.29h2.32a40.12,40.12,0,0,0,11.13-1.51,24.51,24.51,0,0,0,9.23-4.93,23.41,23.41,0,0,0,6.32-9,35.2,35.2,0,0,0,2.32-13.57c0-1,0-2.44-.17-4.29s-.29-3.91-.52-6.15-.49-4.59-.76-7-.56-4.74-.87-6.91l-17.4,2.9q1.27,10.44,1.8,16t.52,7.78a2.75,2.75,0,0,1-.41,1.39,3.59,3.59,0,0,1-1.62,1.28,14.09,14.09,0,0,1-3.37,1,30.42,30.42,0,0,1-5.62.41h-2.9q-5.68,0-8.07-2c-1.58-1.35-2.38-3.85-2.38-7.48V438.4H488.69q0,7.44-.35,11.78a29.59,29.59,0,0,1-1.1,6.61,4.83,4.83,0,0,1-2.09,3,7.3,7.3,0,0,1-3.42.7,14.43,14.43,0,0,1-4.29-.64,9.17,9.17,0,0,1-4.07-2.84q.12-1.52.18-3.6t.06-4.29v-8.36H457.94a82.07,82.07,0,0,1-.46,9.69,20.61,20.61,0,0,1-1.51,6,6.45,6.45,0,0,1-2.67,3.13,8.53,8.53,0,0,1-4.06.87,15.45,15.45,0,0,1-4.52-.7,6.61,6.61,0,0,1-3.83-3.36c.07-1,.13-2.17.17-3.48s.06-2.69.06-4.12v-8.07H425.45a76.34,76.34,0,0,1-.52,10,13.5,13.5,0,0,1-2,6,7.65,7.65,0,0,1-4.06,3,22.82,22.82,0,0,1-6.73.81h-2.32a19.65,19.65,0,0,1-4.76-.52,8.86,8.86,0,0,1-3.65-1.86,8.29,8.29,0,0,1-2.38-3.71,19.26,19.26,0,0,1-.81-6.09V397.79l-18,1.75,1.74,83.54a5.56,5.56,0,0,1-1.62,3.59,14.86,14.86,0,0,1-4.7,3.37,34,34,0,0,1-7.6,2.49,49.23,49.23,0,0,1-10.44,1,32.51,32.51,0,0,1-8.41-.93A16.18,16.18,0,0,1,343.6,490a9.42,9.42,0,0,1-3.08-3.83,12.45,12.45,0,0,1-.93-4.88c0-1,0-2.22.12-3.65s.27-3.13.58-5.11.73-4.29,1.28-7,1.23-5.74,2.09-9.22l-13.93-4.06A120,120,0,0,0,323.58,473a78.27,78.27,0,0,0-1.39,12.36Q322.19,500.25,330.78,508.2Z"/><polygon class="cls-2" points="533.94 421.58 544.38 411.14 544.38 409.4 533.94 398.95 532.2 398.95 521.76 409.4 521.76 411.14 532.2 421.58 533.94 421.58"/><polygon class="cls-2" points="572.81 482.5 572.81 397.8 554.83 399.54 556.57 483.65 572.81 482.5"/><path class="cls-2" d="M568.17,513.82q17.63-.47,27.79-9.22t11.42-25.7a11.38,11.38,0,0,0,4.82,3.25,20,20,0,0,0,6.44.93H621a40.2,40.2,0,0,0,11.14-1.51,24.54,24.54,0,0,0,9.22-4.93,23.31,23.31,0,0,0,6.32-9A35.19,35.19,0,0,0,650,454.07q0-1.51-.18-4.29c-.11-1.86-.29-3.91-.52-6.15s-.48-4.59-.75-7-.57-4.74-.88-6.91l-17.4,2.9q1.28,10.44,1.8,16t.52,7.78a2.83,2.83,0,0,1-.4,1.39,3.68,3.68,0,0,1-1.63,1.28,14,14,0,0,1-3.36,1,30.62,30.62,0,0,1-5.63.41h-2.9a25.7,25.7,0,0,1-6.38-.64,7.36,7.36,0,0,1-4.12-2.9,21.32,21.32,0,0,1-3-6.5q-1.27-4.23-2.78-11.43L585,443.63q2.67,14,4,23.26a110.83,110.83,0,0,1,1.27,12.7,9.14,9.14,0,0,1-1.45,3.66,14.11,14.11,0,0,1-4.18,3.89A41.55,41.55,0,0,1,576.7,491a91.59,91.59,0,0,1-12.59,3.66Z"/><polygon class="cls-2" points="638.84 489.67 628.98 499.53 619.12 489.67 617.38 489.67 607.51 499.53 607.51 501.27 617.38 511.13 619.12 511.13 628.98 501.27 638.84 511.13 640.58 511.13 650.44 501.27 650.44 499.53 640.58 489.67 638.84 489.67"/><polygon class="cls-2" points="676.65 482.5 676.65 397.8 658.67 399.54 660.41 483.65 676.65 482.5"/><polygon class="cls-2" points="345.57 531.89 345.57 533.63 356.01 544.08 357.75 544.08 368.19 533.63 368.19 531.89 357.75 521.45 356.01 521.45 345.57 531.89"/><path class="cls-2" d="M676.88,532.85a27,27,0,0,0-4.47-9.22,20.49,20.49,0,0,0-7.25-6,22.05,22.05,0,0,0-10-2.14,20.14,20.14,0,0,0-7.77,1.39,19.87,19.87,0,0,0-6.15,4.06,37.48,37.48,0,0,0-5.34,6.55,97.34,97.34,0,0,0-5.1,8.88,23,23,0,0,1-3.71,5.4,17.54,17.54,0,0,1-4.12,3.19,13.69,13.69,0,0,1-4.59,1.5,34.09,34.09,0,0,1-5,.35H406.89A14.36,14.36,0,0,1,402,546a7.7,7.7,0,0,1-3.66-3,23.66,23.66,0,0,1-2.84-6.5A107.19,107.19,0,0,1,393,525.31L375.56,530q.81,4.53,1.74,10.44T379,552.05q.81,5.75,1.28,10.44t.46,6.91a5.76,5.76,0,0,1-1.5,3.59,13.64,13.64,0,0,1-4.53,3.37,32.64,32.64,0,0,1-7.42,2.49,47.7,47.7,0,0,1-10.33,1,32.51,32.51,0,0,1-8.41-.93,16.18,16.18,0,0,1-5.57-2.55,9.35,9.35,0,0,1-3.08-3.83,12.4,12.4,0,0,1-.93-4.87c0-1,0-2.22.12-3.66s.27-3.13.58-5.1.73-4.3,1.28-7,1.23-5.75,2.09-9.23l-13.93-4.06A120.28,120.28,0,0,0,323,559.36a78.4,78.4,0,0,0-1.39,12.36q0,14.85,8.59,22.8t25.64,8a53.24,53.24,0,0,0,16.3-2.44,42.76,42.76,0,0,0,13.29-6.85,32,32,0,0,0,8.93-10.73,30.72,30.72,0,0,0,3.25-14.21v-1a7.52,7.52,0,0,0-.12-1.27,8.39,8.39,0,0,0,3.43,2.38,14.77,14.77,0,0,0,6,1.1H613.41a22.76,22.76,0,0,0,10.45-2.67,21.91,21.91,0,0,0,8.7-8.35q1.28,4.75,7.6,8.18T658.67,570a17.13,17.13,0,0,0,7.25-1.63,18.37,18.37,0,0,0,6.32-4.87,24.7,24.7,0,0,0,4.47-8,33,33,0,0,0,1.68-11A42.39,42.39,0,0,0,676.88,532.85ZM653.5,547.41a21.1,21.1,0,0,1-5.39-1.22,5.94,5.94,0,0,1-2.67-1.8,3.27,3.27,0,0,1-.7-1.91,7.3,7.3,0,0,1,.52-2.61,20,20,0,0,1,1.8-3.31,9.5,9.5,0,0,1,3.37-.69c1.39-.08,2.39-.12,3-.12q4.88,0,6.91,2.73t2,8.87A45.55,45.55,0,0,1,653.5,547.41Z"/><rect class="cls-3" width="1000" height="1000"/></g></g></svg>