<svg width="30" height="30" viewBox="0 0 30 30" fill="none" xmlns="http://www.w3.org/2000/svg">
<path d="M24.6812 13.8819L21.0548 8.27219C20.9001 8.03301 20.6974 7.83837 20.4631 7.70416C20.2289 7.56996 19.9697 7.5 19.7068 7.5H10.2932C10.0303 7.5 9.77112 7.56995 9.53687 7.70416C9.30261 7.83836 9.09989 8.033 8.94528 8.27219L5.31878 13.8819C5.1116 14.2024 5 14.5885 5 14.9847L5 20.625C5 21.6605 5.74618 22.5 6.66667 22.5H23.3333C24.2538 22.5 25 21.6605 25 20.625V14.9847C25 14.5885 24.8884 14.2024 24.6812 13.8819ZM9.84385 9.00738C9.89549 8.92777 9.96308 8.86297 10.0412 8.81825C10.1192 8.77353 10.2056 8.75015 10.2932 8.75H19.7069C19.884 8.75 20.052 8.84621 20.1562 9.00738L23.2221 13.75H6.77792L9.84385 9.00738ZM23.8889 15.625V20.625C23.8889 20.9696 23.6397 21.25 23.3333 21.25H6.66667C6.36035 21.25 6.11111 20.9696 6.11111 20.625V15.625C6.11111 15.2798 6.35983 15 6.66667 15H23.3333C23.6402 15 23.8889 15.2798 23.8889 15.625ZM21.9444 18.125C21.9444 18.6428 21.5714 19.0625 21.1111 19.0625C20.6509 19.0625 20.2778 18.6428 20.2778 18.125C20.2778 17.6072 20.6509 17.1875 21.1111 17.1875C21.5714 17.1875 21.9444 17.6072 21.9444 18.125ZM19.7222 18.125C19.7222 18.6428 19.3491 19.0625 18.8889 19.0625C18.4286 19.0625 18.0556 18.6428 18.0556 18.125C18.0556 17.6072 18.4286 17.1875 18.8889 17.1875C19.3491 17.1875 19.7222 17.6072 19.7222 18.125Z" fill="#080A1A"/>
</svg>
