<svg width="30" height="30" viewBox="0 0 30 30" fill="none" xmlns="http://www.w3.org/2000/svg">
<path d="M18.5664 8.93359C18.3223 8.68945 17.9266 8.68945 17.6828 8.93359L17.2746 9.3418L16.5586 8.62578C15.2098 7.27695 13.1102 7.15273 11.6133 8.22812L10.5938 7.20938C9.97266 6.59063 9.15234 6.25 8.27656 6.25C6.46992 6.25 5 7.71992 5 9.52734V23.125C5 23.4688 5.27953 23.75 5.625 23.75C5.97047 23.75 6.25 23.4688 6.25 23.125V9.52734C6.25 8.40937 7.15898 7.5 8.27656 7.5C8.81797 7.5 9.32695 7.71117 9.70977 8.09336L10.727 9.11055C10.2617 9.75781 10 10.5273 10 11.3398C10 12.3664 10.3996 13.332 11.1254 14.057L11.8414 14.773L11.4336 15.1836C11.1895 15.4277 11.1895 15.8234 11.4336 16.0672C11.5547 16.1875 11.7148 16.25 11.875 16.25C12.0352 16.25 12.1948 16.189 12.3168 16.0669L18.5668 9.81687C18.8125 9.57422 18.8125 9.17578 18.5664 8.93359ZM12.7266 13.8906L12.0078 13.1758C11.5195 12.6875 11.25 12.0352 11.25 11.3398C11.25 10.6477 11.5198 9.99688 12.0094 9.50742C13.0195 8.49805 14.6637 8.49531 15.675 9.50742L16.391 10.2234L12.7266 13.8906ZM16.5625 20.625C16.0449 20.625 15.625 21.0445 15.625 21.5625C15.625 22.0801 16.0449 22.5 16.5625 22.5C17.0801 22.5 17.5 22.082 17.5 21.5625C17.5 21.043 17.082 20.625 16.5625 20.625ZM18.75 15.3125C18.75 14.7945 18.3301 14.375 17.8125 14.375C17.2949 14.375 16.875 14.793 16.875 15.3125C16.875 15.832 17.293 16.25 17.8125 16.25C18.332 16.25 18.75 15.832 18.75 15.3125ZM16.25 17.8125C16.25 17.2945 15.8301 16.875 15.3125 16.875C14.7949 16.875 14.375 17.293 14.375 17.8125C14.375 18.3301 14.7949 18.75 15.3125 18.75C15.8301 18.75 16.25 18.332 16.25 17.8125ZM21.5625 15.625C21.0449 15.625 20.625 16.0445 20.625 16.5625C20.625 17.0801 21.0449 17.5 21.5625 17.5C22.0801 17.5 22.5 17.082 22.5 16.5625C22.5 16.043 22.082 15.625 21.5625 15.625ZM24.0625 13.125C23.5449 13.125 23.125 13.5445 23.125 14.0625C23.125 14.582 23.543 15 24.0625 15C24.582 15 25 14.582 25 14.0625C25 13.543 24.582 13.125 24.0625 13.125ZM21.25 12.8125C21.25 12.2945 20.8301 11.875 20.3125 11.875C19.7949 11.875 19.375 12.293 19.375 12.8125C19.375 13.332 19.793 13.75 20.3125 13.75C20.832 13.75 21.25 13.332 21.25 12.8125ZM19.0625 18.125C18.5449 18.125 18.125 18.5445 18.125 19.0625C18.125 19.5801 18.5449 20 19.0625 20C19.5801 20 20 19.582 20 19.0625C20 18.543 19.582 18.125 19.0625 18.125Z" fill="#080A1A"/>
</svg>
